<svg width="812" height="908" viewBox="0 0 812 908" fill="none" xmlns="http://www.w3.org/2000/svg">
<mask id="path-1-outside-1_306_2" maskUnits="userSpaceOnUse" x="191" y="692.062" width="430" height="85" fill="black">
<rect fill="white" x="191" y="692.062" width="430" height="85"/>
<path d="M195.906 772.062V704.862H208.77L248.418 753.246H242.177V704.862H257.538V772.062H244.77L205.026 723.678H211.266V772.062H195.906ZM298.013 772.831C292.125 772.831 286.941 771.678 282.461 769.374C278.045 767.07 274.621 763.934 272.189 759.966C269.757 755.934 268.541 751.358 268.541 746.238C268.541 741.054 269.725 736.478 272.093 732.51C274.525 728.478 277.821 725.342 281.981 723.102C286.141 720.798 290.845 719.646 296.093 719.646C301.149 719.646 305.693 720.734 309.725 722.91C313.821 725.022 317.053 728.094 319.421 732.126C321.789 736.094 322.973 740.862 322.973 746.43C322.973 747.006 322.941 747.678 322.877 748.446C322.813 749.15 322.749 749.822 322.685 750.462H280.733V741.726H314.813L309.053 744.318C309.053 741.63 308.509 739.294 307.421 737.31C306.333 735.326 304.829 733.79 302.909 732.702C300.989 731.55 298.749 730.974 296.189 730.974C293.629 730.974 291.357 731.55 289.373 732.702C287.453 733.79 285.949 735.358 284.861 737.406C283.773 739.39 283.229 741.758 283.229 744.51V746.814C283.229 749.63 283.837 752.126 285.053 754.302C286.333 756.414 288.093 758.046 290.333 759.198C292.637 760.286 295.325 760.83 298.397 760.83C301.149 760.83 303.549 760.414 305.597 759.582C307.709 758.75 309.629 757.502 311.357 755.838L319.325 764.478C316.957 767.166 313.981 769.246 310.397 770.718C306.813 772.127 302.685 772.831 298.013 772.831ZM357.519 772.831C352.015 772.831 347.119 771.678 342.831 769.374C338.607 767.07 335.247 763.934 332.751 759.966C330.319 755.934 329.103 751.358 329.103 746.238C329.103 741.054 330.319 736.478 332.751 732.51C335.247 728.478 338.607 725.342 342.831 723.102C347.119 720.798 352.015 719.646 357.519 719.646C362.959 719.646 367.823 720.798 372.111 723.102C376.399 725.342 379.759 728.446 382.191 732.414C384.623 736.382 385.839 740.99 385.839 746.238C385.839 751.358 384.623 755.934 382.191 759.966C379.759 763.934 376.399 767.07 372.111 769.374C367.823 771.678 362.959 772.831 357.519 772.831ZM357.519 760.542C360.015 760.542 362.255 759.966 364.239 758.814C366.223 757.662 367.791 756.03 368.943 753.918C370.095 751.742 370.671 749.182 370.671 746.238C370.671 743.23 370.095 740.67 368.943 738.558C367.791 736.446 366.223 734.814 364.239 733.662C362.255 732.51 360.015 731.934 357.519 731.934C355.023 731.934 352.783 732.51 350.799 733.662C348.815 734.814 347.215 736.446 345.999 738.558C344.847 740.67 344.271 743.23 344.271 746.238C344.271 749.182 344.847 751.742 345.999 753.918C347.215 756.03 348.815 757.662 350.799 758.814C352.783 759.966 355.023 760.542 357.519 760.542ZM413.222 772.062L384.23 704.862H401.03L426.374 764.382H416.486L442.214 704.862H457.67L428.582 772.062H413.222ZM463.068 772.062V720.414H478.044V772.062H463.068ZM470.556 713.214C467.804 713.214 465.564 712.414 463.836 710.814C462.108 709.214 461.244 707.23 461.244 704.862C461.244 702.494 462.108 700.51 463.836 698.91C465.564 697.31 467.804 696.51 470.556 696.51C473.308 696.51 475.548 697.278 477.276 698.814C479.004 700.286 479.868 702.206 479.868 704.574C479.868 707.07 479.004 709.15 477.276 710.814C475.612 712.414 473.372 713.214 470.556 713.214ZM493.767 772.062V719.262C493.767 713.438 495.495 708.798 498.951 705.342C502.407 701.822 507.335 700.062 513.735 700.062C515.911 700.062 517.991 700.286 519.975 700.734C522.023 701.182 523.751 701.886 525.159 702.846L521.223 713.694C520.391 713.118 519.463 712.67 518.439 712.35C517.415 712.03 516.327 711.87 515.175 711.87C512.999 711.87 511.303 712.51 510.087 713.79C508.935 715.006 508.359 716.862 508.359 719.358V724.158L508.743 730.59V772.062H493.767ZM485.799 733.086V721.566H521.607V733.086H485.799ZM550.188 772.831C544.108 772.831 539.372 771.294 535.98 768.222C532.588 765.086 530.892 760.446 530.892 754.302V708.99H545.868V754.11C545.868 756.286 546.444 757.982 547.596 759.198C548.748 760.35 550.316 760.926 552.3 760.926C554.668 760.926 556.684 760.286 558.348 759.006L562.38 769.566C560.844 770.654 558.988 771.486 556.812 772.062C554.7 772.575 552.492 772.831 550.188 772.831ZM522.924 733.086V721.566H558.732V733.086H522.924ZM602.467 772.062V761.982L601.507 759.774V741.726C601.507 738.526 600.515 736.03 598.531 734.238C596.611 732.446 593.635 731.55 589.603 731.55C586.851 731.55 584.131 731.998 581.443 732.894C578.819 733.726 576.579 734.878 574.723 736.35L569.347 725.886C572.163 723.902 575.555 722.366 579.523 721.278C583.491 720.19 587.523 719.646 591.619 719.646C599.491 719.646 605.603 721.502 609.955 725.214C614.307 728.926 616.483 734.718 616.483 742.59V772.062H602.467ZM586.723 772.831C582.691 772.831 579.235 772.159 576.355 770.814C573.475 769.406 571.267 767.518 569.731 765.15C568.195 762.782 567.427 760.126 567.427 757.182C567.427 754.11 568.163 751.422 569.635 749.118C571.171 746.814 573.571 745.022 576.835 743.742C580.099 742.398 584.355 741.726 589.603 741.726H603.331V750.462H591.235C587.715 750.462 585.283 751.038 583.939 752.19C582.659 753.342 582.019 754.782 582.019 756.51C582.019 758.431 582.755 759.966 584.227 761.118C585.763 762.206 587.843 762.75 590.467 762.75C592.963 762.75 595.203 762.174 597.187 761.022C599.171 759.806 600.611 758.046 601.507 755.742L603.811 762.654C602.723 765.982 600.739 768.51 597.859 770.238C594.979 771.966 591.267 772.831 586.723 772.831Z"/>
</mask>
<path d="M195.906 772.062V704.862H208.77L248.418 753.246H242.177V704.862H257.538V772.062H244.77L205.026 723.678H211.266V772.062H195.906ZM298.013 772.831C292.125 772.831 286.941 771.678 282.461 769.374C278.045 767.07 274.621 763.934 272.189 759.966C269.757 755.934 268.541 751.358 268.541 746.238C268.541 741.054 269.725 736.478 272.093 732.51C274.525 728.478 277.821 725.342 281.981 723.102C286.141 720.798 290.845 719.646 296.093 719.646C301.149 719.646 305.693 720.734 309.725 722.91C313.821 725.022 317.053 728.094 319.421 732.126C321.789 736.094 322.973 740.862 322.973 746.43C322.973 747.006 322.941 747.678 322.877 748.446C322.813 749.15 322.749 749.822 322.685 750.462H280.733V741.726H314.813L309.053 744.318C309.053 741.63 308.509 739.294 307.421 737.31C306.333 735.326 304.829 733.79 302.909 732.702C300.989 731.55 298.749 730.974 296.189 730.974C293.629 730.974 291.357 731.55 289.373 732.702C287.453 733.79 285.949 735.358 284.861 737.406C283.773 739.39 283.229 741.758 283.229 744.51V746.814C283.229 749.63 283.837 752.126 285.053 754.302C286.333 756.414 288.093 758.046 290.333 759.198C292.637 760.286 295.325 760.83 298.397 760.83C301.149 760.83 303.549 760.414 305.597 759.582C307.709 758.75 309.629 757.502 311.357 755.838L319.325 764.478C316.957 767.166 313.981 769.246 310.397 770.718C306.813 772.127 302.685 772.831 298.013 772.831ZM357.519 772.831C352.015 772.831 347.119 771.678 342.831 769.374C338.607 767.07 335.247 763.934 332.751 759.966C330.319 755.934 329.103 751.358 329.103 746.238C329.103 741.054 330.319 736.478 332.751 732.51C335.247 728.478 338.607 725.342 342.831 723.102C347.119 720.798 352.015 719.646 357.519 719.646C362.959 719.646 367.823 720.798 372.111 723.102C376.399 725.342 379.759 728.446 382.191 732.414C384.623 736.382 385.839 740.99 385.839 746.238C385.839 751.358 384.623 755.934 382.191 759.966C379.759 763.934 376.399 767.07 372.111 769.374C367.823 771.678 362.959 772.831 357.519 772.831ZM357.519 760.542C360.015 760.542 362.255 759.966 364.239 758.814C366.223 757.662 367.791 756.03 368.943 753.918C370.095 751.742 370.671 749.182 370.671 746.238C370.671 743.23 370.095 740.67 368.943 738.558C367.791 736.446 366.223 734.814 364.239 733.662C362.255 732.51 360.015 731.934 357.519 731.934C355.023 731.934 352.783 732.51 350.799 733.662C348.815 734.814 347.215 736.446 345.999 738.558C344.847 740.67 344.271 743.23 344.271 746.238C344.271 749.182 344.847 751.742 345.999 753.918C347.215 756.03 348.815 757.662 350.799 758.814C352.783 759.966 355.023 760.542 357.519 760.542ZM413.222 772.062L384.23 704.862H401.03L426.374 764.382H416.486L442.214 704.862H457.67L428.582 772.062H413.222ZM463.068 772.062V720.414H478.044V772.062H463.068ZM470.556 713.214C467.804 713.214 465.564 712.414 463.836 710.814C462.108 709.214 461.244 707.23 461.244 704.862C461.244 702.494 462.108 700.51 463.836 698.91C465.564 697.31 467.804 696.51 470.556 696.51C473.308 696.51 475.548 697.278 477.276 698.814C479.004 700.286 479.868 702.206 479.868 704.574C479.868 707.07 479.004 709.15 477.276 710.814C475.612 712.414 473.372 713.214 470.556 713.214ZM493.767 772.062V719.262C493.767 713.438 495.495 708.798 498.951 705.342C502.407 701.822 507.335 700.062 513.735 700.062C515.911 700.062 517.991 700.286 519.975 700.734C522.023 701.182 523.751 701.886 525.159 702.846L521.223 713.694C520.391 713.118 519.463 712.67 518.439 712.35C517.415 712.03 516.327 711.87 515.175 711.87C512.999 711.87 511.303 712.51 510.087 713.79C508.935 715.006 508.359 716.862 508.359 719.358V724.158L508.743 730.59V772.062H493.767ZM485.799 733.086V721.566H521.607V733.086H485.799ZM550.188 772.831C544.108 772.831 539.372 771.294 535.98 768.222C532.588 765.086 530.892 760.446 530.892 754.302V708.99H545.868V754.11C545.868 756.286 546.444 757.982 547.596 759.198C548.748 760.35 550.316 760.926 552.3 760.926C554.668 760.926 556.684 760.286 558.348 759.006L562.38 769.566C560.844 770.654 558.988 771.486 556.812 772.062C554.7 772.575 552.492 772.831 550.188 772.831ZM522.924 733.086V721.566H558.732V733.086H522.924ZM602.467 772.062V761.982L601.507 759.774V741.726C601.507 738.526 600.515 736.03 598.531 734.238C596.611 732.446 593.635 731.55 589.603 731.55C586.851 731.55 584.131 731.998 581.443 732.894C578.819 733.726 576.579 734.878 574.723 736.35L569.347 725.886C572.163 723.902 575.555 722.366 579.523 721.278C583.491 720.19 587.523 719.646 591.619 719.646C599.491 719.646 605.603 721.502 609.955 725.214C614.307 728.926 616.483 734.718 616.483 742.59V772.062H602.467ZM586.723 772.831C582.691 772.831 579.235 772.159 576.355 770.814C573.475 769.406 571.267 767.518 569.731 765.15C568.195 762.782 567.427 760.126 567.427 757.182C567.427 754.11 568.163 751.422 569.635 749.118C571.171 746.814 573.571 745.022 576.835 743.742C580.099 742.398 584.355 741.726 589.603 741.726H603.331V750.462H591.235C587.715 750.462 585.283 751.038 583.939 752.19C582.659 753.342 582.019 754.782 582.019 756.51C582.019 758.431 582.755 759.966 584.227 761.118C585.763 762.206 587.843 762.75 590.467 762.75C592.963 762.75 595.203 762.174 597.187 761.022C599.171 759.806 600.611 758.046 601.507 755.742L603.811 762.654C602.723 765.982 600.739 768.51 597.859 770.238C594.979 771.966 591.267 772.831 586.723 772.831Z" fill="#005469"/>
<path d="M195.906 772.062H191.906V776.062H195.906V772.062ZM195.906 704.862V700.862H191.906V704.862H195.906ZM208.77 704.862L211.863 702.327L210.663 700.862H208.77V704.862ZM248.418 753.246V757.246H256.867L251.511 750.711L248.418 753.246ZM242.178 753.246H238.178V757.246H242.178V753.246ZM242.178 704.862V700.862H238.178V704.862H242.178ZM257.538 704.862H261.538V700.862H257.538V704.862ZM257.538 772.062V776.062H261.538V772.062H257.538ZM244.77 772.062L241.679 774.601L242.879 776.062H244.77V772.062ZM205.025 723.678V719.678H196.563L201.935 726.217L205.025 723.678ZM211.266 723.678H215.266V719.678H211.266V723.678ZM211.266 772.062V776.062H215.266V772.062H211.266ZM199.906 772.062V704.862H191.906V772.062H199.906ZM195.906 708.862H208.77V700.862H195.906V708.862ZM205.676 707.398L245.324 755.782L251.511 750.711L211.863 702.327L205.676 707.398ZM248.418 749.246H242.178V757.246H248.418V749.246ZM246.178 753.246V704.862H238.178V753.246H246.178ZM242.178 708.862H257.538V700.862H242.178V708.862ZM253.538 704.862V772.062H261.538V704.862H253.538ZM257.538 768.062H244.77V776.062H257.538V768.062ZM247.86 769.524L208.116 721.14L201.935 726.217L241.679 774.601L247.86 769.524ZM205.025 727.678H211.266V719.678H205.025V727.678ZM207.266 723.678V772.062H215.266V723.678H207.266ZM211.266 768.062H195.906V776.062H211.266V768.062ZM282.461 769.374L280.61 772.921L280.621 772.926L280.631 772.932L282.461 769.374ZM272.189 759.966L268.764 762.032L268.771 762.045L268.778 762.057L272.189 759.966ZM272.093 732.51L268.668 730.445L268.663 730.453L268.658 730.461L272.093 732.51ZM281.981 723.102L283.877 726.624L283.898 726.613L283.919 726.602L281.981 723.102ZM309.725 722.91L307.825 726.431L307.858 726.448L307.892 726.466L309.725 722.91ZM319.421 732.126L315.972 734.152L315.979 734.164L315.986 734.176L319.421 732.126ZM322.877 748.447L326.86 748.809L326.862 748.794L326.863 748.779L322.877 748.447ZM322.685 750.463V754.463H326.305L326.665 750.861L322.685 750.463ZM280.733 750.463H276.733V754.463H280.733V750.463ZM280.733 741.726V737.726H276.733V741.726H280.733ZM314.813 741.726L316.454 745.374L314.813 737.726V741.726ZM309.053 744.318H305.053V750.505L310.694 747.966L309.053 744.318ZM307.421 737.31L303.914 739.234L307.421 737.31ZM302.909 732.702L300.851 736.132L300.893 736.158L300.937 736.183L302.909 732.702ZM289.373 732.702L291.345 736.183L291.363 736.172L291.381 736.162L289.373 732.702ZM284.861 737.406L288.368 739.33L288.381 739.307L288.393 739.283L284.861 737.406ZM285.053 754.302L281.561 756.254L281.595 756.315L281.632 756.376L285.053 754.302ZM290.333 759.199L288.503 762.756L288.564 762.787L288.625 762.815L290.333 759.199ZM305.597 759.582L304.131 755.861L304.111 755.869L304.091 755.877L305.597 759.582ZM311.357 755.839L314.297 753.127L311.526 750.122L308.582 752.957L311.357 755.839ZM319.325 764.479L322.326 767.123L324.71 764.417L322.265 761.767L319.325 764.479ZM310.397 770.718L311.859 774.442L311.888 774.43L311.916 774.419L310.397 770.718ZM298.013 768.83C292.654 768.83 288.116 767.785 284.29 765.817L280.631 772.932C285.766 775.572 291.596 776.83 298.013 776.83V768.83ZM284.311 765.828C280.49 763.835 277.626 761.183 275.599 757.876L268.778 762.057C271.616 766.686 275.599 770.306 280.61 772.921L284.311 765.828ZM275.614 757.901C273.591 754.546 272.541 750.696 272.541 746.238H264.541C264.541 752.021 265.923 757.323 268.764 762.032L275.614 757.901ZM272.541 746.238C272.541 741.686 273.573 737.835 275.528 734.56L268.658 730.461C265.876 735.122 264.541 740.423 264.541 746.238H272.541ZM275.518 734.576C277.579 731.16 280.346 728.526 283.877 726.624L280.084 719.581C275.296 722.159 271.471 725.797 268.668 730.445L275.518 734.576ZM283.919 726.602C287.426 724.659 291.451 723.646 296.093 723.646V715.646C290.239 715.646 284.856 716.938 280.043 719.603L283.919 726.602ZM296.093 723.646C300.556 723.646 304.435 724.601 307.825 726.431L311.624 719.39C306.95 716.868 301.742 715.646 296.093 715.646V723.646ZM307.892 726.466C311.305 728.226 313.981 730.762 315.972 734.152L322.87 730.101C320.125 725.427 316.337 721.819 311.558 719.355L307.892 726.466ZM315.986 734.176C317.915 737.408 318.973 741.436 318.973 746.43H326.973C326.973 740.289 325.663 734.781 322.856 730.077L315.986 734.176ZM318.973 746.43C318.973 746.866 318.948 747.423 318.891 748.114L326.863 748.779C326.933 747.934 326.973 747.147 326.973 746.43H318.973ZM318.893 748.084C318.83 748.778 318.767 749.438 318.705 750.064L326.665 750.861C326.73 750.207 326.795 749.523 326.86 748.809L318.893 748.084ZM322.685 746.463H280.733V754.463H322.685V746.463ZM284.733 750.463V741.726H276.733V750.463H284.733ZM280.733 745.727H314.813V737.726H280.733V745.727ZM313.171 738.079L307.411 740.671L310.694 747.966L316.454 745.374L313.171 738.079ZM313.053 744.318C313.053 741.084 312.395 738.062 310.928 735.387L303.914 739.234C304.622 740.527 305.053 742.176 305.053 744.318H313.053ZM310.928 735.387C309.492 732.769 307.464 730.686 304.881 729.222L300.937 736.183C302.193 736.895 303.173 737.884 303.914 739.234L310.928 735.387ZM304.967 729.273C302.34 727.697 299.368 726.974 296.189 726.974V734.974C298.13 734.974 299.637 735.404 300.851 736.132L304.967 729.273ZM296.189 726.974C293.007 726.974 290.027 727.697 287.364 729.243L291.381 736.162C292.687 735.404 294.251 734.974 296.189 734.974V726.974ZM287.401 729.222C284.784 730.705 282.754 732.846 281.328 735.53L288.393 739.283C289.143 737.871 290.121 736.876 291.345 736.183L287.401 729.222ZM281.354 735.483C279.879 738.171 279.229 741.23 279.229 744.51H287.229C287.229 742.287 287.666 740.61 288.368 739.33L281.354 735.483ZM279.229 744.51V746.814H287.229V744.51H279.229ZM279.229 746.814C279.229 750.224 279.97 753.407 281.561 756.254L288.545 752.351C287.703 750.846 287.229 749.037 287.229 746.814H279.229ZM281.632 756.376C283.303 759.133 285.62 761.273 288.503 762.756L292.162 755.641C290.566 754.82 289.362 753.696 288.474 752.229L281.632 756.376ZM288.625 762.815C291.561 764.202 294.854 764.83 298.397 764.83V756.83C295.796 756.83 293.712 756.371 292.041 755.582L288.625 762.815ZM298.397 764.83C301.543 764.83 304.475 764.356 307.102 763.288L304.091 755.877C302.623 756.473 300.755 756.83 298.397 756.83V764.83ZM307.063 763.304C309.689 762.27 312.048 760.726 314.131 758.72L308.582 752.957C307.209 754.279 305.728 755.231 304.131 755.861L307.063 763.304ZM308.416 758.55L316.384 767.19L322.265 761.767L314.297 753.127L308.416 758.55ZM316.323 761.834C314.394 764.024 311.94 765.76 308.877 767.018L311.916 774.419C316.022 772.733 319.519 770.309 322.326 767.123L316.323 761.834ZM308.934 766.995C305.904 768.186 302.288 768.83 298.013 768.83V776.83C303.082 776.83 307.722 776.067 311.859 774.442L308.934 766.995ZM342.831 769.374L340.916 772.886L340.927 772.892L340.938 772.898L342.831 769.374ZM332.751 759.966L329.326 762.032L329.345 762.065L329.365 762.096L332.751 759.966ZM332.751 732.51L329.35 730.405L329.345 730.413L329.341 730.42L332.751 732.51ZM342.831 723.102L344.705 726.636L344.715 726.631L344.725 726.626L342.831 723.102ZM372.111 723.102L370.218 726.626L370.239 726.637L370.259 726.648L372.111 723.102ZM382.191 759.966L385.602 762.057L385.609 762.045L385.616 762.032L382.191 759.966ZM372.111 769.374L370.218 765.851L372.111 769.374ZM364.239 758.814L366.248 762.274L364.239 758.814ZM368.943 753.919L372.455 755.834L372.467 755.812L372.478 755.79L368.943 753.919ZM368.943 738.558L365.432 740.474L368.943 738.558ZM364.239 733.662L362.231 737.122L364.239 733.662ZM350.799 733.662L352.808 737.122V737.122L350.799 733.662ZM345.999 738.558L342.533 736.563L342.51 736.603L342.488 736.643L345.999 738.558ZM345.999 753.919L342.464 755.79L342.497 755.853L342.533 755.914L345.999 753.919ZM350.799 758.814L352.808 755.355V755.355L350.799 758.814ZM357.519 768.83C352.589 768.83 348.358 767.803 344.725 765.851L340.938 772.898C345.881 775.554 351.442 776.83 357.519 776.83V768.83ZM344.747 765.863C341.106 763.877 338.259 761.21 336.137 757.837L329.365 762.096C332.235 766.659 336.108 770.264 340.916 772.886L344.747 765.863ZM336.176 757.901C334.153 754.546 333.103 750.696 333.103 746.238H325.103C325.103 752.021 326.485 757.323 329.326 762.032L336.176 757.901ZM333.103 746.238C333.103 741.706 334.158 737.87 336.162 734.601L329.341 730.42C326.48 735.087 325.103 740.403 325.103 746.238H333.103ZM336.152 734.616C338.272 731.192 341.102 728.547 344.705 726.636L340.957 719.569C336.112 722.138 332.223 725.765 329.35 730.405L336.152 734.616ZM344.725 726.626C348.358 724.674 352.589 723.646 357.519 723.646V715.646C351.442 715.646 345.881 716.923 340.938 719.579L344.725 726.626ZM357.519 723.646C362.377 723.646 366.578 724.67 370.218 726.626L374.005 719.579C369.069 716.927 363.541 715.646 357.519 715.646V723.646ZM370.259 726.648C373.932 728.567 376.742 731.179 378.781 734.505L385.602 730.324C382.776 725.714 378.866 722.118 373.963 719.557L370.259 726.648ZM378.781 734.505C380.78 737.766 381.839 741.632 381.839 746.238H389.839C389.839 740.349 388.467 734.999 385.602 730.324L378.781 734.505ZM381.839 746.238C381.839 750.696 380.789 754.546 378.766 757.901L385.616 762.032C388.457 757.323 389.839 752.021 389.839 746.238H381.839ZM378.781 757.876C376.736 761.212 373.912 763.866 370.218 765.851L374.005 772.898C378.886 770.275 382.782 766.657 385.602 762.057L378.781 757.876ZM370.218 765.851C366.578 767.807 362.377 768.83 357.519 768.83V776.83C363.541 776.83 369.069 775.55 374.005 772.898L370.218 765.851ZM357.519 764.542C360.657 764.542 363.601 763.811 366.248 762.274L362.231 755.355C360.91 756.122 359.374 756.542 357.519 756.542V764.542ZM366.248 762.274C368.896 760.736 370.97 758.556 372.455 755.834L365.432 752.003C364.612 753.505 363.551 754.589 362.231 755.355L366.248 762.274ZM372.478 755.79C373.99 752.935 374.671 749.708 374.671 746.238H366.671C366.671 748.657 366.2 750.55 365.408 752.047L372.478 755.79ZM374.671 746.238C374.671 742.726 373.998 739.472 372.455 736.643L365.432 740.474C366.193 741.869 366.671 743.735 366.671 746.238H374.671ZM372.455 736.643C370.97 733.921 368.896 731.741 366.248 730.203L362.231 737.122C363.551 737.888 364.612 738.972 365.432 740.474L372.455 736.643ZM366.248 730.203C363.601 728.666 360.657 727.934 357.519 727.934V735.934C359.374 735.934 360.91 736.355 362.231 737.122L366.248 730.203ZM357.519 727.934C354.382 727.934 351.438 728.666 348.791 730.203L352.808 737.122C354.129 736.355 355.665 735.934 357.519 735.934V727.934ZM348.791 730.203C346.163 731.729 344.076 733.883 342.533 736.563L349.466 740.554C350.355 739.01 351.467 737.9 352.808 737.122L348.791 730.203ZM342.488 736.643C340.945 739.472 340.271 742.726 340.271 746.238H348.271C348.271 743.735 348.75 741.869 349.511 740.474L342.488 736.643ZM340.271 746.238C340.271 749.708 340.952 752.935 342.464 755.79L349.534 752.047C348.742 750.55 348.271 748.657 348.271 746.238H340.271ZM342.533 755.914C344.076 758.594 346.163 760.748 348.791 762.274L352.808 755.355C351.467 754.577 350.355 753.467 349.466 751.923L342.533 755.914ZM348.791 762.274C351.438 763.811 354.382 764.542 357.519 764.542V756.542C355.665 756.542 354.129 756.122 352.808 755.355L348.791 762.274ZM413.222 772.062L409.549 773.647L410.591 776.062H413.222V772.062ZM384.23 704.862V700.862H378.148L380.557 706.447L384.23 704.862ZM401.03 704.862L404.71 703.295L403.674 700.862H401.03V704.862ZM426.374 764.382V768.382H432.424L430.054 762.815L426.374 764.382ZM416.486 764.382L412.814 762.795L410.399 768.382H416.486V764.382ZM442.214 704.862V700.862H439.585L438.542 703.275L442.214 704.862ZM457.67 704.862L461.341 706.451L463.76 700.862H457.67V704.862ZM428.582 772.062V776.062H431.209L432.253 773.651L428.582 772.062ZM416.895 770.478L387.903 703.278L380.557 706.447L409.549 773.647L416.895 770.478ZM384.23 708.862H401.03V700.862H384.23V708.862ZM397.349 706.43L422.693 765.95L430.054 762.815L404.71 703.295L397.349 706.43ZM426.374 760.382H416.486V768.382H426.374V760.382ZM420.157 765.97L445.885 706.45L438.542 703.275L412.814 762.795L420.157 765.97ZM442.214 708.862H457.67V700.862H442.214V708.862ZM453.999 703.274L424.911 770.474L432.253 773.651L461.341 706.451L453.999 703.274ZM428.582 768.062H413.222V776.062H428.582V768.062ZM463.068 772.062H459.068V776.062H463.068V772.062ZM463.068 720.414V716.414H459.068V720.414H463.068ZM478.044 720.414H482.044V716.414H478.044V720.414ZM478.044 772.062V776.062H482.044V772.062H478.044ZM463.836 710.814L461.119 713.75V713.75L463.836 710.814ZM463.836 698.91L466.554 701.846V701.846L463.836 698.91ZM477.276 698.814L474.619 701.804L474.65 701.832L474.682 701.859L477.276 698.814ZM477.276 710.814L480.049 713.698L480.051 713.696L477.276 710.814ZM467.068 772.062V720.414H459.068V772.062H467.068ZM463.068 724.414H478.044V716.414H463.068V724.414ZM474.044 720.414V772.062H482.044V720.414H474.044ZM478.044 768.062H463.068V776.062H478.044V768.062ZM470.556 709.214C468.631 709.214 467.419 708.681 466.554 707.879L461.119 713.75C463.709 716.148 466.978 717.214 470.556 717.214V709.214ZM466.554 707.879C465.649 707.041 465.244 706.123 465.244 704.862H457.244C457.244 708.338 458.568 711.388 461.119 713.75L466.554 707.879ZM465.244 704.862C465.244 703.602 465.649 702.684 466.554 701.846L461.119 695.975C458.568 698.337 457.244 701.387 457.244 704.862H465.244ZM466.554 701.846C467.419 701.044 468.631 700.51 470.556 700.51V692.51C466.978 692.51 463.709 693.577 461.119 695.975L466.554 701.846ZM470.556 700.51C472.525 700.51 473.758 701.039 474.619 701.804L479.934 695.825C477.339 693.518 474.091 692.51 470.556 692.51V700.51ZM474.682 701.859C475.475 702.535 475.868 703.321 475.868 704.574H483.868C483.868 701.092 482.533 698.038 479.87 695.77L474.682 701.859ZM475.868 704.574C475.868 706.033 475.412 707.057 474.502 707.933L480.051 713.696C482.597 711.244 483.868 708.108 483.868 704.574H475.868ZM474.504 707.931C473.742 708.664 472.579 709.214 470.556 709.214V717.214C474.165 717.214 477.483 716.165 480.049 713.698L474.504 707.931ZM493.767 772.062H489.767V776.062H493.767V772.062ZM498.951 705.342L501.78 708.171L501.793 708.158L501.806 708.145L498.951 705.342ZM519.975 700.734L519.094 704.636L519.107 704.639L519.12 704.642L519.975 700.734ZM525.159 702.846L528.919 704.211L529.979 701.291L527.413 699.542L525.159 702.846ZM521.223 713.694L518.946 716.983L523.213 719.937L524.983 715.059L521.223 713.694ZM510.087 713.79L507.187 711.035L507.183 711.04L510.087 713.79ZM508.359 724.159H504.359V724.278L504.366 724.397L508.359 724.159ZM508.743 730.59H512.743V730.471L512.736 730.352L508.743 730.59ZM508.743 772.062V776.062H512.743V772.062H508.743ZM485.799 733.086H481.799V737.086H485.799V733.086ZM485.799 721.566V717.566H481.799V721.566H485.799ZM521.607 721.566H525.607V717.566H521.607V721.566ZM521.607 733.086V737.086H525.607V733.086H521.607ZM497.767 772.062V719.262H489.767V772.062H497.767ZM497.767 719.262C497.767 714.281 499.215 710.736 501.78 708.171L496.123 702.514C491.775 706.861 489.767 712.596 489.767 719.262H497.767ZM501.806 708.145C504.304 705.6 508.075 704.062 513.735 704.062V696.062C506.596 696.062 500.511 698.045 496.097 702.54L501.806 708.145ZM513.735 704.062C515.635 704.062 517.419 704.258 519.094 704.636L520.856 696.833C518.564 696.315 516.187 696.062 513.735 696.062V704.062ZM519.12 704.642C520.78 705.005 522.006 705.538 522.906 706.151L527.413 699.542C525.496 698.235 523.267 697.36 520.83 696.827L519.12 704.642ZM521.399 701.482L517.463 712.33L524.983 715.059L528.919 704.211L521.399 701.482ZM523.5 710.406C522.316 709.586 521.019 708.966 519.632 708.533L517.246 716.168C517.908 716.375 518.466 716.651 518.946 716.983L523.5 710.406ZM519.632 708.533C518.195 708.083 516.702 707.87 515.175 707.87V715.87C515.952 715.87 516.636 715.978 517.246 716.168L519.632 708.533ZM515.175 707.87C512.176 707.87 509.328 708.782 507.187 711.035L512.987 716.545C513.279 716.239 513.823 715.87 515.175 715.87V707.87ZM507.183 711.04C505.049 713.292 504.359 716.332 504.359 719.358H512.359C512.359 717.393 512.821 716.721 512.991 716.541L507.183 711.04ZM504.359 719.358V724.159H512.359V719.358H504.359ZM504.366 724.397L504.75 730.829L512.736 730.352L512.352 723.92L504.366 724.397ZM504.743 730.59V772.062H512.743V730.59H504.743ZM508.743 768.062H493.767V776.062H508.743V768.062ZM489.799 733.086V721.566H481.799V733.086H489.799ZM485.799 725.566H521.607V717.566H485.799V725.566ZM517.607 721.566V733.086H525.607V721.566H517.607ZM521.607 729.086H485.799V737.086H521.607V729.086ZM535.98 768.222L533.265 771.16L533.28 771.174L533.295 771.187L535.98 768.222ZM530.892 708.99V704.99H526.892V708.99H530.892ZM545.868 708.99H549.868V704.99H545.868V708.99ZM547.596 759.199L544.692 761.949L544.73 761.989L544.768 762.027L547.596 759.199ZM558.348 759.007L562.085 757.58L560.168 752.56L555.909 755.836L558.348 759.007ZM562.38 769.566L564.692 772.831L567.224 771.038L566.117 768.14L562.38 769.566ZM556.812 772.062L557.755 775.95L557.795 775.94L557.836 775.929L556.812 772.062ZM522.924 733.086H518.924V737.086H522.924V733.086ZM522.924 721.566V717.566H518.924V721.566H522.924ZM558.732 721.566H562.732V717.566H558.732V721.566ZM558.732 733.086V737.086H562.732V733.086H558.732ZM550.188 768.83C544.768 768.83 541.108 767.47 538.665 765.258L533.295 771.187C537.637 775.119 543.448 776.83 550.188 776.83V768.83ZM538.696 765.285C536.368 763.134 534.892 759.717 534.892 754.302H526.892C526.892 761.176 528.808 767.039 533.265 771.16L538.696 765.285ZM534.892 754.302V708.99H526.892V754.302H534.892ZM530.892 712.991H545.868V704.99H530.892V712.991ZM541.868 708.99V754.11H549.868V708.99H541.868ZM541.868 754.11C541.868 756.993 542.645 759.789 544.692 761.949L550.5 756.448C550.243 756.176 549.868 755.58 549.868 754.11H541.868ZM544.768 762.027C546.828 764.087 549.502 764.926 552.3 764.926V756.926C551.131 756.926 550.669 756.614 550.425 756.37L544.768 762.027ZM552.3 764.926C555.432 764.926 558.335 764.063 560.787 762.177L555.909 755.836C555.033 756.51 553.905 756.926 552.3 756.926V764.926ZM554.611 760.433L558.643 770.993L566.117 768.14L562.085 757.58L554.611 760.433ZM560.068 766.302C558.99 767.066 557.591 767.719 555.789 768.196L557.836 775.929C560.386 775.254 562.698 774.243 564.692 772.831L560.068 766.302ZM555.87 768.175C554.084 768.608 552.194 768.83 550.188 768.83V776.83C552.791 776.83 555.316 776.541 557.755 775.95L555.87 768.175ZM526.924 733.086V721.566H518.924V733.086H526.924ZM522.924 725.566H558.732V717.566H522.924V725.566ZM554.732 721.566V733.086H562.732V721.566H554.732ZM558.732 729.086H522.924V737.086H558.732V729.086ZM602.467 772.062H598.467V776.062H602.467V772.062ZM602.467 761.982H606.467V761.151L606.135 760.388L602.467 761.982ZM601.507 759.774H597.507V760.606L597.839 761.369L601.507 759.774ZM598.531 734.238L595.802 737.163L595.826 737.185L595.85 737.207L598.531 734.238ZM581.443 732.894L582.652 736.707L582.68 736.699L582.708 736.689L581.443 732.894ZM574.723 736.35L571.165 738.178L573.391 742.512L577.209 739.484L574.723 736.35ZM569.347 725.886L567.043 722.617L564.199 724.62L565.789 727.714L569.347 725.886ZM579.523 721.278L578.465 717.421L579.523 721.278ZM609.955 725.214L612.551 722.171L609.955 725.214ZM616.483 772.062V776.062H620.483V772.062H616.483ZM576.355 770.814L574.598 774.408L574.631 774.424L574.663 774.439L576.355 770.814ZM569.731 765.15L573.087 762.974L569.731 765.15ZM569.635 749.118L566.307 746.9L566.285 746.932L566.264 746.965L569.635 749.118ZM576.835 743.743L578.295 747.466L578.327 747.454L578.358 747.441L576.835 743.743ZM603.331 741.726H607.331V737.726H603.331V741.726ZM603.331 750.463V754.463H607.331V750.463H603.331ZM583.939 752.19L581.336 749.153L581.299 749.185L581.263 749.217L583.939 752.19ZM584.227 761.118L581.762 764.269L581.837 764.327L581.915 764.383L584.227 761.118ZM597.187 761.022L599.196 764.482L599.237 764.458L599.277 764.433L597.187 761.022ZM601.507 755.743L605.302 754.478L601.797 743.962L597.779 754.293L601.507 755.743ZM603.811 762.655L607.613 763.897L608.023 762.642L607.606 761.39L603.811 762.655ZM597.859 770.239L595.801 766.809L597.859 770.239ZM606.467 772.062V761.982H598.467V772.062H606.467ZM606.135 760.388L605.175 758.18L597.839 761.369L598.799 763.577L606.135 760.388ZM605.507 759.774V741.726H597.507V759.774H605.507ZM605.507 741.726C605.507 737.638 604.2 733.969 601.212 731.27L595.85 737.207C596.83 738.092 597.507 739.415 597.507 741.726H605.507ZM601.26 731.314C598.289 728.541 594.123 727.55 589.603 727.55V735.55C593.147 735.55 594.933 736.352 595.802 737.163L601.26 731.314ZM589.603 727.55C586.408 727.55 583.262 728.072 580.178 729.1L582.708 736.689C585 735.925 587.294 735.55 589.603 735.55V727.55ZM580.234 729.082C577.221 730.037 574.531 731.398 572.237 733.217L577.209 739.484C578.628 738.359 580.417 737.416 582.652 736.707L580.234 729.082ZM578.281 734.523L572.905 724.059L565.789 727.714L571.165 738.178L578.281 734.523ZM571.651 729.156C574.023 727.485 576.974 726.125 580.581 725.136L578.465 717.421C574.135 718.608 570.303 720.32 567.043 722.617L571.651 729.156ZM580.581 725.136C584.206 724.142 587.882 723.646 591.619 723.646V715.646C587.164 715.646 582.776 716.239 578.465 717.421L580.581 725.136ZM591.619 723.646C598.897 723.646 603.963 725.361 607.359 728.258L612.551 722.171C607.243 717.644 600.085 715.646 591.619 715.646V723.646ZM607.359 728.258C610.52 730.954 612.483 735.428 612.483 742.59H620.483C620.483 734.009 618.094 726.899 612.551 722.171L607.359 728.258ZM612.483 742.59V772.062H620.483V742.59H612.483ZM616.483 768.062H602.467V776.062H616.483V768.062ZM586.723 768.83C583.124 768.83 580.275 768.23 578.047 767.19L574.663 774.439C578.195 776.087 582.258 776.83 586.723 776.83V768.83ZM578.112 767.221C575.793 766.087 574.177 764.654 573.087 762.974L566.375 767.327C568.357 770.383 571.157 772.726 574.598 774.408L578.112 767.221ZM573.087 762.974C571.99 761.283 571.427 759.389 571.427 757.183H563.427C563.427 760.864 564.4 764.282 566.375 767.327L573.087 762.974ZM571.427 757.183C571.427 754.776 571.994 752.856 573.006 751.272L566.264 746.965C564.332 749.989 563.427 753.445 563.427 757.183H571.427ZM572.963 751.337C573.938 749.876 575.59 748.527 578.295 747.466L575.375 740.019C571.552 741.518 568.404 743.753 566.307 746.9L572.963 751.337ZM578.358 747.441C580.963 746.368 584.647 745.727 589.603 745.727V737.726C584.063 737.726 579.235 738.429 575.312 740.044L578.358 747.441ZM589.603 745.727H603.331V737.726H589.603V745.727ZM599.331 741.726V750.463H607.331V741.726H599.331ZM603.331 746.463H591.235V754.463H603.331V746.463ZM591.235 746.463C587.565 746.463 583.843 747.005 581.336 749.153L586.542 755.228C586.723 755.072 587.865 754.463 591.235 754.463V746.463ZM581.263 749.217C579.137 751.131 578.019 753.653 578.019 756.51H586.019C586.019 755.912 586.181 755.554 586.615 755.164L581.263 749.217ZM578.019 756.51C578.019 759.622 579.291 762.335 581.762 764.269L586.692 757.968C586.219 757.598 586.019 757.239 586.019 756.51H578.019ZM581.915 764.383C584.346 766.105 587.332 766.751 590.467 766.751V758.751C588.354 758.751 587.18 758.308 586.539 757.854L581.915 764.383ZM590.467 766.751C593.605 766.751 596.548 766.019 599.196 764.482L595.178 757.563C593.858 758.33 592.321 758.751 590.467 758.751V766.751ZM599.277 764.433C602.055 762.73 604.043 760.257 605.235 757.192L597.779 754.293C597.179 755.836 596.287 756.883 595.097 757.612L599.277 764.433ZM597.712 757.007L600.016 763.919L607.606 761.39L605.302 754.478L597.712 757.007ZM600.009 761.412C599.206 763.867 597.818 765.598 595.801 766.809L599.917 773.668C603.66 771.423 606.24 768.098 607.613 763.897L600.009 761.412ZM595.801 766.809C593.725 768.054 590.789 768.83 586.723 768.83V776.83C591.745 776.83 596.233 775.879 599.917 773.668L595.801 766.809Z" fill="#DCF7B9" mask="url(#path-1-outside-1_306_2)"/>
<circle cx="398.406" cy="300.844" r="290.844" fill="#005469" stroke="#DCF7B9" stroke-width="20"/>
<path d="M288.479 112.384C352.269 65.5776 342.108 40.34 327.977 33.7991C327.033 33.362 325.946 33.3384 324.944 33.6187C252.973 53.7527 212.554 91.9535 197.83 111.361C196.583 113.004 198.492 115.039 200.418 114.301C214.911 108.748 217.987 118.874 215.094 127.191C214.741 128.203 214.347 129.23 214.076 130.267C207.119 156.908 215.538 161.707 222.585 160.525C224.546 160.196 226.139 158.83 227.341 157.246C251.317 125.632 259.501 122.225 283.11 115.061C285.017 114.483 286.872 113.563 288.479 112.384Z" fill="#DCF7B9"/>
<path d="M181.503 219.381C208.665 187.911 181.603 167.265 162.389 160.181C161.563 159.876 160.655 160.162 160.15 160.884C145.113 182.357 126.723 224.901 123.203 278.293C123.103 279.813 124.678 280.852 125.976 280.055C136.24 273.756 141.705 263.149 144.404 257.174C145.142 255.539 145.464 253.75 145.607 251.962C147.016 234.276 162.088 226.504 172.926 224.019C176.167 223.276 179.33 221.898 181.503 219.381Z" fill="#DCF7B9"/>
<path d="M288.479 112.384C352.269 65.5776 342.108 40.34 327.977 33.7991C327.033 33.362 325.946 33.3384 324.944 33.6187C252.973 53.7527 212.554 91.9535 197.83 111.361C196.583 113.004 198.492 115.039 200.418 114.301C214.911 108.748 217.987 118.874 215.094 127.191C214.741 128.203 214.347 129.23 214.076 130.267C207.119 156.908 215.538 161.707 222.585 160.525C224.546 160.196 226.139 158.83 227.341 157.246C251.317 125.632 259.501 122.225 283.11 115.061C285.017 114.483 286.872 113.563 288.479 112.384Z" stroke="#DCF7B9" stroke-width="10"/>
<path d="M181.503 219.381C208.665 187.911 181.603 167.265 162.389 160.181C161.563 159.876 160.655 160.162 160.15 160.884C145.113 182.357 126.723 224.901 123.203 278.293C123.103 279.813 124.678 280.852 125.976 280.055C136.24 273.756 141.705 263.149 144.404 257.174C145.142 255.539 145.464 253.75 145.607 251.962C147.016 234.276 162.088 226.504 172.926 224.019C176.167 223.276 179.33 221.898 181.503 219.381Z" stroke="#DCF7B9" stroke-width="10"/>
<path d="M203.068 496.042C172.956 474.773 145.258 416.268 136.595 388.636C136.257 387.56 136.907 386.445 137.999 386.166C155.411 381.723 152.938 385.059 156 395.188C165.559 426.807 189.931 436.91 203.646 438.467C205.788 438.71 207.86 439.571 209.299 441.177C236.014 470.994 221.65 487.882 205.029 496.185C204.394 496.502 203.648 496.451 203.068 496.042Z" fill="#DCF7B9" stroke="#DCF7B9" stroke-width="10"/>
<path d="M539.268 133.378C560.514 135.565 595.907 119.12 604.881 114.741C606.134 114.129 607.661 114.465 608.558 115.532C677.621 197.728 679.921 256.803 679.997 280.378C680.002 281.742 679.08 282.929 677.76 283.274L583.004 308.091C577.899 309.428 573.54 312.946 570.959 317.549C478.677 482.139 365.742 446.44 314.002 420.688C203.5 365.688 214 168.71 314 168.71H436.041C440.797 168.71 445.14 166.056 447.658 162.022C477.53 114.171 518.172 121.632 536.573 132.437C537.409 132.929 538.303 133.278 539.268 133.378Z" fill="#DCF7B9" stroke="#DCF7B9" stroke-width="10"/>
<path d="M425.125 246.031C437 264.24 471.319 289.731 513.594 246.031M281.781 246.031C293.656 264.24 327.975 289.731 370.25 246.031" stroke="#005469" stroke-width="15"/>
<path d="M457.087 355.164L512.838 346.532C514.878 346.216 516.903 347.187 517.935 348.976L518.176 349.395C519.888 352.366 518.171 356.139 514.806 356.799L456.381 368.249C455.363 368.449 454.419 368.98 453.691 369.72C412.936 411.122 355.203 388.393 326.56 368.794C323.633 366.792 323.298 362.656 325.855 360.199C374.11 313.833 429.309 335.686 453.146 354.125C454.27 354.995 455.683 355.382 457.087 355.164Z" fill="#005469"/>
<path d="M447.587 360.461C408.239 369.257 391.232 369.163 330.928 362.485C356.453 367.984 396.924 392.376 447.587 360.461Z" fill="#DCF7B9"/>
<path d="M292.367 572.674C288.414 546.737 317.469 525.618 327.866 522.866C340.124 529.738 350.927 522.944 354.797 518.688L371.533 526.657C373.296 527.496 375.329 527.561 377.142 526.836L387.067 522.866C402.668 526.952 403.5 522.866 413.302 522.866L425.518 527.201C426.932 527.703 428.47 527.737 429.905 527.299L444.411 522.866C456.484 528.252 469.253 525.11 474.128 522.866C492.468 526.822 502.358 559.382 502.97 572.408C503.003 573.118 502.497 573.729 501.799 573.865L497.428 574.72C430.051 587.901 360.729 587.596 293.47 573.823C292.901 573.707 292.455 573.249 292.367 572.674Z" fill="#DCF7B9"/>
<ellipse cx="338.076" cy="507.637" rx="20.1018" ry="20.5485" fill="#DCF7B9"/>
<ellipse cx="399.895" cy="503.703" rx="24.5688" ry="25.0156" fill="#DCF7B9"/>
<circle cx="458.693" cy="511.637" r="20.5485" fill="#DCF7B9"/>
</svg>
